<?xml version="1.0" encoding="UTF-8" standalone="no"?>
<svg
   xmlns:dc="http://purl.org/dc/elements/1.1/"
   xmlns:cc="http://creativecommons.org/ns#"
   xmlns:rdf="http://www.w3.org/1999/02/22-rdf-syntax-ns#"
   xmlns:svg="http://www.w3.org/2000/svg"
   xmlns="http://www.w3.org/2000/svg"
   xmlns:xlink="http://www.w3.org/1999/xlink"
   xmlns:sodipodi="http://sodipodi.sourceforge.net/DTD/sodipodi-0.dtd"
   xmlns:inkscape="http://www.inkscape.org/namespaces/inkscape"
   width="210mm"
   height="297mm"
   viewBox="0 0 210 297"
   version="1.1"
   id="svg958"
   inkscape:version="1.0.1 (0767f8302a, 2020-10-17)"
   sodipodi:docname="face.svg">
  <defs
     id="defs952">
    <linearGradient
       inkscape:collect="always"
       id="linearGradient1582">
      <stop
         style="stop-color:#ff00ff;stop-opacity:1"
         offset="0"
         id="stop1578" />
      <stop
         style="stop-color:#00ffff;stop-opacity:1"
         offset="1"
         id="stop1580" />
    </linearGradient>
    <linearGradient
       inkscape:collect="always"
       xlink:href="#linearGradient1582"
       id="linearGradient1584"
       x1="46.566668"
       y1="148.16667"
       x2="165.1"
       y2="148.16667"
       gradientUnits="userSpaceOnUse" />
  </defs>
  <sodipodi:namedview
     id="base"
     pagecolor="#ffffff"
     bordercolor="#666666"
     borderopacity="1.0"
     inkscape:pageopacity="0.0"
     inkscape:pageshadow="2"
     inkscape:zoom="0.35"
     inkscape:cx="400"
     inkscape:cy="560"
     inkscape:document-units="mm"
     inkscape:current-layer="layer1"
     inkscape:document-rotation="0"
     showgrid="false"
     inkscape:window-width="1366"
     inkscape:window-height="668"
     inkscape:window-x="0"
     inkscape:window-y="27"
     inkscape:window-maximized="1" />
  <metadata
     id="metadata955">
    <rdf:RDF>
      <cc:Work
         rdf:about="">
        <dc:format>image/svg+xml</dc:format>
        <dc:type
           rdf:resource="http://purl.org/dc/dcmitype/StillImage" />
        <dc:title></dc:title>
      </cc:Work>
    </rdf:RDF>
  </metadata>
  <g
     inkscape:label="Layer 1"
     inkscape:groupmode="layer"
     id="layer1">
    <path
       fill="currentColor"
       d="M 152.4,88.9 H 59.266668 a 12.7,12.7 0 0 0 -12.7,12.7 v 93.13333 a 12.7,12.7 0 0 0 12.7,12.7 H 95.58073 V 167.13465 H 78.91198 v -18.96798 h 16.66875 v -14.45684 c 0,-16.44385 9.78958,-25.527 24.78352,-25.527 7.18079,0 14.68967,1.28059 14.68967,1.28059 V 125.603 h -8.27352 c -8.15181,0 -10.69446,5.05883 -10.69446,10.24731 v 12.31636 h 18.19804 l -2.91042,18.96798 h -15.28762 v 40.29868 H 152.4 a 12.7,12.7 0 0 0 12.7,-12.7 V 101.6 A 12.7,12.7 0 0 0 152.4,88.9 Z"
       id="path1567"
       style="stroke-width:0.264583;fill-opacity:1;fill:url(#linearGradient1584)" />
  </g>
</svg>
