<?xml version="1.0" encoding="UTF-8" standalone="no"?>
<svg
   xmlns:dc="http://purl.org/dc/elements/1.1/"
   xmlns:cc="http://creativecommons.org/ns#"
   xmlns:rdf="http://www.w3.org/1999/02/22-rdf-syntax-ns#"
   xmlns:svg="http://www.w3.org/2000/svg"
   xmlns="http://www.w3.org/2000/svg"
   xmlns:xlink="http://www.w3.org/1999/xlink"
   xmlns:sodipodi="http://sodipodi.sourceforge.net/DTD/sodipodi-0.dtd"
   xmlns:inkscape="http://www.inkscape.org/namespaces/inkscape"
   width="210mm"
   height="297mm"
   viewBox="0 0 210 297"
   version="1.1"
   id="svg8"
   inkscape:version="1.0.1 (0767f8302a, 2020-10-17)"
   sodipodi:docname="instagram.svg">
  <defs
     id="defs2">
    <linearGradient
       inkscape:collect="always"
       id="linearGradient922">
      <stop
         style="stop-color:#ff00ff;stop-opacity:1"
         offset="0"
         id="stop918" />
      <stop
         style="stop-color:#00ffff;stop-opacity:1"
         offset="1"
         id="stop920" />
    </linearGradient>
    <linearGradient
       inkscape:collect="always"
       xlink:href="#linearGradient922"
       id="linearGradient924"
       x1="46.533594"
       y1="148.16667"
       x2="165.13308"
       y2="148.16667"
       gradientUnits="userSpaceOnUse" />
  </defs>
  <sodipodi:namedview
     id="base"
     pagecolor="#ffffff"
     bordercolor="#666666"
     borderopacity="1.0"
     inkscape:pageopacity="0.0"
     inkscape:pageshadow="2"
     inkscape:zoom="0.35"
     inkscape:cx="400"
     inkscape:cy="560"
     inkscape:document-units="mm"
     inkscape:current-layer="layer1"
     inkscape:document-rotation="0"
     showgrid="false"
     inkscape:window-width="1366"
     inkscape:window-height="668"
     inkscape:window-x="0"
     inkscape:window-y="27"
     inkscape:window-maximized="1" />
  <metadata
     id="metadata5">
    <rdf:RDF>
      <cc:Work
         rdf:about="">
        <dc:format>image/svg+xml</dc:format>
        <dc:type
           rdf:resource="http://purl.org/dc/dcmitype/StillImage" />
        <dc:title></dc:title>
      </cc:Work>
    </rdf:RDF>
  </metadata>
  <g
     inkscape:label="Layer 1"
     inkscape:groupmode="layer"
     id="layer1">
    <path
       fill="currentColor"
       d="m 105.84656,117.76604 c -16.827497,0 -30.400622,13.57313 -30.400622,30.40063 0,16.8275 13.573125,30.40062 30.400622,30.40062 16.8275,0 30.40063,-13.57312 30.40063,-30.40062 0,-16.8275 -13.57313,-30.40063 -30.40063,-30.40063 z m 0,50.165 c -10.874372,0 -19.764372,-8.86354 -19.764372,-19.76437 0,-10.90084 8.863542,-19.76438 19.764372,-19.76438 10.90084,0 19.76438,8.86354 19.76438,19.76438 0,10.90083 -8.89,19.76437 -19.76438,19.76437 z m 38.735,-51.40854 c 0,3.94229 -3.175,7.09083 -7.09083,7.09083 -3.94229,0 -7.09083,-3.175 -7.09083,-7.09083 0,-3.91583 3.175,-7.09083 7.09083,-7.09083 3.91583,0 7.09083,3.175 7.09083,7.09083 z m 20.1348,7.19667 c -0.4498,-9.49855 -2.61938,-17.9123 -9.57792,-24.844378 -6.93208,-6.932083 -15.34584,-9.101667 -24.84438,-9.577917 -9.78958,-0.555625 -39.131872,-0.555625 -48.921455,0 -9.472084,0.449792 -17.885834,2.619375 -24.844376,9.551459 -6.958541,6.932086 -9.101666,15.345836 -9.577916,24.844376 -0.555625,9.78958 -0.555625,39.13187 0,48.92146 0.449791,9.49854 2.619375,17.91229 9.577916,24.84437 6.958542,6.93208 15.345834,9.10167 24.844376,9.57792 9.789583,0.55562 39.131875,0.55562 48.921455,0 9.49854,-0.4498 17.9123,-2.61938 24.84438,-9.57792 6.93208,-6.93208 9.10167,-15.34583 9.57792,-24.84437 0.55562,-9.78959 0.55562,-39.10542 0,-48.895 z m -12.64709,59.39895 c -2.06375,5.18584 -6.05896,9.18104 -11.27125,11.27125 -7.80521,3.09563 -26.32604,2.38125 -34.95146,2.38125 -8.625414,0 -27.172705,0.68792 -34.951455,-2.38125 -5.185834,-2.06375 -9.181042,-6.05896 -11.27125,-11.27125 -3.095626,-7.8052 -2.38125,-26.32604 -2.38125,-34.95145 0,-8.62542 -0.687917,-27.17271 2.38125,-34.95146 2.06375,-5.18584 6.058958,-9.18104 11.27125,-11.27125 7.805208,-3.095626 26.326041,-2.381251 34.951455,-2.381251 8.62542,0 27.17271,-0.687917 34.95146,2.381251 5.18583,2.06375 9.18104,6.05896 11.27125,11.27125 3.09563,7.80521 2.38125,26.32604 2.38125,34.95146 0,8.62541 0.71438,27.1727 -2.38125,34.95145 z"
       id="path907"
       style="stroke-width:0.264583;fill-opacity:1;fill:url(#linearGradient924)" />
  </g>
</svg>
