<?xml version="1.0" encoding="UTF-8" standalone="no"?>
<svg
   xmlns:dc="http://purl.org/dc/elements/1.1/"
   xmlns:cc="http://creativecommons.org/ns#"
   xmlns:rdf="http://www.w3.org/1999/02/22-rdf-syntax-ns#"
   xmlns:svg="http://www.w3.org/2000/svg"
   xmlns="http://www.w3.org/2000/svg"
   xmlns:xlink="http://www.w3.org/1999/xlink"
   xmlns:sodipodi="http://sodipodi.sourceforge.net/DTD/sodipodi-0.dtd"
   xmlns:inkscape="http://www.inkscape.org/namespaces/inkscape"
   width="210mm"
   height="297mm"
   viewBox="0 0 210 297"
   version="1.1"
   id="svg1199"
   inkscape:version="1.0.1 (0767f8302a, 2020-10-17)"
   sodipodi:docname="beer.svg">
  <defs
     id="defs1193">
    <linearGradient
       inkscape:collect="always"
       id="linearGradient1831">
      <stop
         style="stop-color:#ff00ff;stop-opacity:1;"
         offset="0"
         id="stop1827" />
      <stop
         style="stop-color:#00ffff;stop-opacity:1"
         offset="1"
         id="stop1829" />
    </linearGradient>
    <linearGradient
       inkscape:collect="always"
       xlink:href="#linearGradient1831"
       id="linearGradient1833"
       x1="46.566668"
       y1="148.16666"
       x2="165.1"
       y2="148.16666"
       gradientUnits="userSpaceOnUse" />
  </defs>
  <sodipodi:namedview
     id="base"
     pagecolor="#ffffff"
     bordercolor="#666666"
     borderopacity="1.0"
     inkscape:pageopacity="0.0"
     inkscape:pageshadow="2"
     inkscape:zoom="0.35"
     inkscape:cx="400"
     inkscape:cy="560"
     inkscape:document-units="mm"
     inkscape:current-layer="layer1"
     inkscape:document-rotation="0"
     showgrid="false"
     inkscape:window-width="1366"
     inkscape:window-height="668"
     inkscape:window-x="0"
     inkscape:window-y="27"
     inkscape:window-maximized="1" />
  <metadata
     id="metadata1196">
    <rdf:RDF>
      <cc:Work
         rdf:about="">
        <dc:format>image/svg+xml</dc:format>
        <dc:type
           rdf:resource="http://purl.org/dc/dcmitype/StillImage" />
        <dc:title></dc:title>
      </cc:Work>
    </rdf:RDF>
  </metadata>
  <g
     inkscape:label="Layer 1"
     inkscape:groupmode="layer"
     id="layer1">
    <path
       fill="currentColor"
       d="m 143.93334,105.83333 h -12.7 V 95.25 c 0,-3.507052 -2.84295,-6.35 -6.35,-6.35 H 52.916668 c -3.507052,0 -6.35,2.842948 -6.35,6.35 v 105.83333 c 0,3.50705 2.842948,6.35 6.35,6.35 h 71.966672 c 3.50705,0 6.35,-2.84295 6.35,-6.35 v -11.1416 l 21.327,-9.51892 C 160.17769,177.02292 165.1,169.43599 165.1,161.09421 V 127 c 0,-11.6713 -9.49536,-21.16667 -21.16666,-21.16667 z m 4.23333,55.26088 a 4.2380958,4.2380958 0 0 1 -2.50799,3.86583 l -14.42534,6.43837 v -48.63174 h 12.7 c 2.33415,0 4.23333,1.89918 4.23333,4.23333 z M 101.6,182.03333 c -2.337857,0 -4.233332,-1.89547 -4.233332,-4.23333 v -59.26667 c 0,-2.33785 1.895475,-4.23333 4.233332,-4.23333 2.33786,0 4.23334,1.89548 4.23334,4.23333 V 177.8 c 0,2.33786 -1.89548,4.23333 -4.23334,4.23333 z m -25.399999,0 c -2.337858,0 -4.233333,-1.89547 -4.233333,-4.23333 v -59.26667 c 0,-2.33785 1.895475,-4.23333 4.233333,-4.23333 2.337859,0 4.233334,1.89548 4.233334,4.23333 V 177.8 c 0,2.33786 -1.895475,4.23333 -4.233334,4.23333 z"
       id="path1808"
       style="stroke-width:0.264583;fill:url(#linearGradient1833);fill-opacity:1" />
  </g>
</svg>
