<?xml version="1.0" encoding="UTF-8" standalone="no"?>
<svg
   xmlns:dc="http://purl.org/dc/elements/1.1/"
   xmlns:cc="http://creativecommons.org/ns#"
   xmlns:rdf="http://www.w3.org/1999/02/22-rdf-syntax-ns#"
   xmlns:svg="http://www.w3.org/2000/svg"
   xmlns="http://www.w3.org/2000/svg"
   xmlns:xlink="http://www.w3.org/1999/xlink"
   xmlns:sodipodi="http://sodipodi.sourceforge.net/DTD/sodipodi-0.dtd"
   xmlns:inkscape="http://www.inkscape.org/namespaces/inkscape"
   width="210mm"
   height="297mm"
   viewBox="0 0 210 297"
   version="1.1"
   id="svg958"
   inkscape:version="1.0.1 (0767f8302a, 2020-10-17)"
   sodipodi:docname="logo.svg">
  <defs
     id="defs952">
    <linearGradient
       inkscape:collect="always"
       id="linearGradient1742">
      <stop
         style="stop-color:#00ffff;stop-opacity:1;"
         offset="0"
         id="stop1738" />
      <stop
         style="stop-color:#ff00ff;stop-opacity:1"
         offset="1"
         id="stop1740" />
    </linearGradient>
    <linearGradient
       inkscape:collect="always"
       xlink:href="#linearGradient1742"
       id="linearGradient1744"
       x1="30.980899"
       y1="148.16727"
       x2="181.39076"
       y2="148.16727"
       gradientUnits="userSpaceOnUse" />
  </defs>
  <sodipodi:namedview
     id="base"
     pagecolor="#ffffff"
     bordercolor="#666666"
     borderopacity="1.0"
     inkscape:pageopacity="0.0"
     inkscape:pageshadow="2"
     inkscape:zoom="1.0466489"
     inkscape:cx="400"
     inkscape:cy="560.00001"
     inkscape:document-units="mm"
     inkscape:current-layer="layer1"
     inkscape:document-rotation="0"
     showgrid="false"
     inkscape:window-width="1366"
     inkscape:window-height="668"
     inkscape:window-x="0"
     inkscape:window-y="27"
     inkscape:window-maximized="1" />
  <metadata
     id="metadata955">
    <rdf:RDF>
      <cc:Work
         rdf:about="">
        <dc:format>image/svg+xml</dc:format>
        <dc:type
           rdf:resource="http://purl.org/dc/dcmitype/StillImage" />
        <dc:title></dc:title>
      </cc:Work>
    </rdf:RDF>
  </metadata>
  <g
     inkscape:label="Layer 1"
     inkscape:groupmode="layer"
     id="layer1">
    <g
       id="g1728"
       style="fill:url(#linearGradient1744);fill-opacity:1">
      <g
         id="g1661"
         style="fill:url(#linearGradient1744);fill-opacity:1">
        <path
           style="color:#000000;font-style:normal;font-variant:normal;font-weight:normal;font-stretch:normal;font-size:medium;line-height:normal;font-family:sans-serif;font-variant-ligatures:normal;font-variant-position:normal;font-variant-caps:normal;font-variant-numeric:normal;font-variant-alternates:normal;font-variant-east-asian:normal;font-feature-settings:normal;font-variation-settings:normal;text-indent:0;text-align:start;text-decoration:none;text-decoration-line:none;text-decoration-style:solid;text-decoration-color:#000000;letter-spacing:normal;word-spacing:normal;text-transform:none;writing-mode:lr-tb;direction:ltr;text-orientation:mixed;dominant-baseline:auto;baseline-shift:baseline;text-anchor:start;white-space:normal;shape-padding:0;shape-margin:0;inline-size:0;clip-rule:nonzero;display:inline;overflow:visible;visibility:visible;isolation:auto;mix-blend-mode:normal;color-interpolation:sRGB;color-interpolation-filters:linearRGB;solid-color:#000000;solid-opacity:1;vector-effect:none;fill:url(#linearGradient1744);fill-opacity:1;fill-rule:nonzero;stroke:none;stroke-width:0.264583;stroke-linecap:butt;stroke-linejoin:miter;stroke-miterlimit:4;stroke-dasharray:none;stroke-dashoffset:0;stroke-opacity:1;color-rendering:auto;image-rendering:auto;shape-rendering:auto;text-rendering:auto;enable-background:accumulate;stop-color:#000000;stop-opacity:1"
           d="m 119.15012,176.23868 c -5.69854,-0.40975 -11.15912,0.43562 -13.335,8.06979 -2.01103,-2.71203 -3.55634,-6.5053 -13.308543,-8.06979 z m 11.64167,-52.81083 c 5.29166,-4.47146 11.53583,-7.72584 18.41499,-9.57792 v 42.65083 c 0,58.04959 -86.783328,57.57334 -86.783328,0.0794 V 113.8235 c 6.852708,1.82563 13.123333,5.18583 18.388541,9.63083 15.028334,-10.58333 35.057297,-10.55687 49.979797,-0.0264 z M 75.546785,107.94972 c 17.039167,-15.874999 43.471045,-15.901457 60.563125,-0.0529 -1.87854,0.92605 -3.67771,1.93146 -5.45042,3.04271 -15.53104,-8.06979 -34.184163,-8.04333 -49.715205,0.0265 -1.666875,-1.05833 -3.677708,-2.16958 -5.3975,-3.01625 z M 51.81366,102.04951 v 18.33563 c -15.451667,9.65729 -15.451667,32.04104 0.02646,41.88354 6.985,64.84938 100.99146,63.57938 107.84416,0.39687 l 0.0794,-0.44979 c 15.53104,-9.60437 15.58396,-32.19979 0.0529,-41.85708 v -18.30917 c -4.5773,0.13229 -8.99584,0.79375 -13.25563,1.95792 -21.69583,-24.209376 -59.66354,-24.209376 -81.359373,0.0265 -4.312709,-1.16417 -8.757709,-1.85209 -13.387917,-1.98438 z m 56.99125,68.47417 c 0,0 9.525,-0.0794 16.21896,-0.39688 2.69875,-0.13229 5.58271,-1.05833 6.74687,-1.71979 6.95855,-3.99521 6.72042,-10.37166 6.93209,-12.54125 -18.41582,-21.92954 -25.62342,-7.7534 -29.89792,14.65792 z M 72.953868,155.89222 c 0.211667,2.16958 -0.02646,8.54604 6.932084,12.54125 1.164166,0.66146 4.021666,1.5875 6.746875,1.71979 6.693958,0.29104 16.218963,0.39688 16.218963,0.39688 -3.492505,-15.71625 -8.916463,-14.84313 -29.897922,-14.65792 z m 44.741042,32.64959 c -0.84667,-1.40229 -1.82562,-1.93146 -1.82562,-1.93146 -6.56167,1.93146 -13.81125,1.82562 -20.08188,0 0,0 -0.767292,0.39687 -1.693333,1.74625 -0.740834,1.08479 -0.978959,2.54 -0.978959,2.54 7.699372,4.65667 17.753542,4.65667 25.452922,0 -0.0265,-0.0265 -0.0794,-1.05833 -0.87313,-2.35479 z"
           id="path1663"
           sodipodi:nodetypes="ccccccsscccccccccccccccccccccccccccccccccccccc" />
        <path
           style="color:#000000;font-style:normal;font-variant:normal;font-weight:normal;font-stretch:normal;font-size:medium;line-height:normal;font-family:sans-serif;font-variant-ligatures:normal;font-variant-position:normal;font-variant-caps:normal;font-variant-numeric:normal;font-variant-alternates:normal;font-variant-east-asian:normal;font-feature-settings:normal;font-variation-settings:normal;text-indent:0;text-align:start;text-decoration:none;text-decoration-line:none;text-decoration-style:solid;text-decoration-color:#000000;letter-spacing:normal;word-spacing:normal;text-transform:none;writing-mode:lr-tb;direction:ltr;text-orientation:mixed;dominant-baseline:auto;baseline-shift:baseline;text-anchor:start;white-space:normal;shape-padding:0;shape-margin:0;inline-size:0;clip-rule:nonzero;display:inline;overflow:visible;visibility:visible;isolation:auto;mix-blend-mode:normal;color-interpolation:sRGB;color-interpolation-filters:linearRGB;solid-color:#000000;solid-opacity:1;vector-effect:none;fill-opacity:1;fill-rule:nonzero;stroke:none;stroke-width:0.264583;stroke-linecap:butt;stroke-linejoin:miter;stroke-miterlimit:4;stroke-dasharray:none;stroke-dashoffset:0;stroke-opacity:1;color-rendering:auto;image-rendering:auto;shape-rendering:auto;text-rendering:auto;enable-background:accumulate;stop-color:#000000;stop-opacity:1;fill:url(#linearGradient1744)"
           d="m 105.88086,85.722656 c -14.928396,0.0033 -29.853546,6.060366 -40.722657,18.167964 -4.298132,-1.15419 -8.72642,-1.84084 -13.339844,-1.97265 l 0.126953,0.13086 h -0.263671 v 0.1289 18.14649 c -15.43874,9.71765 -15.436256,32.11802 0.03516,42.01367 3.522483,32.44968 28.82307,48.38276 54.095699,48.27344 25.28457,-0.10937 50.56432,-16.27294 54.00195,-47.92188 l 0.002,-0.01 0.0703,-0.39453 c 15.52617,-9.6595 15.58096,-32.26989 0.0625,-41.98828 v -18.38282 l -0.13672,0.004 c -4.56016,0.13179 -8.96267,0.79133 -13.20898,1.94531 -10.869,-12.092837 -25.79516,-18.143792 -40.72269,-18.140474 z m 0,0.261719 c 14.87941,-0.0033 29.75971,6.035203 40.58203,18.111325 l 0.0547,0.0606 0.0781,-0.0215 c 4.20649,-1.14961 8.57044,-1.80015 13.08789,-1.94141 v 18.23828 l 0.0625,0.0391 c 15.45237,9.60836 15.39948,32.07719 -0.0527,41.63282 l -0.0488,0.0312 -0.0918,0.51171 v 0.004 c -3.41936,31.52688 -28.5668,47.58837 -53.74218,47.69727 -25.175391,0.1089 -50.354124,-15.73198 -53.839847,-48.09375 l -0.0059,-0.0625 -0.05469,-0.0352 c -15.40149,-9.79377 -15.401102,-32.04961 -0.02734,-41.6582 l 0.0625,-0.0391 V 102.1934 c 4.570119,0.14155 8.962024,0.81864 13.222657,1.96875 l 0.07813,0.0215 0.05469,-0.0605 C 76.123119,92.033682 91.001451,85.987677 105.88086,85.984375 Z m -0.0723,9.910156 c -10.90693,0.01 -21.80704,3.998253 -30.351559,11.958989 l -0.04297,0.0391 v 0.0566 0.082 l 0.07422,0.0371 c 1.7153,0.84446 3.723158,1.95478 5.384766,3.00976 l 0.06445,0.041 0.06836,-0.0352 c 15.492692,-8.0499 34.099323,-8.07709 49.591803,-0.0273 l 0.0684,0.0352 0.0644,-0.041 c 1.769,-1.10893 3.56297,-2.11108 5.4375,-3.03516 l 0.17187,-0.0859 -0.14062,-0.12891 c -8.571,-7.94742 -19.48369,-11.9162 -30.39063,-11.906249 z m 0,0.263672 c 10.78171,-0.0098 21.56112,3.907007 30.06055,11.720707 -1.79284,0.89135 -3.51777,1.85297 -5.21484,2.91406 -15.53373,-8.04423 -34.167136,-8.01757 -49.701175,0.0254 -1.604563,-1.01511 -3.503334,-2.05753 -5.167969,-2.88477 8.473585,-7.82801 19.240909,-11.765552 30.023434,-11.775387 z M 62.291016,113.65039 v 42.92969 c 0,14.40676 5.442354,25.25902 13.605468,32.50586 8.163115,7.24683 19.040698,10.89114 29.917966,10.91601 10.87727,0.0249 21.75659,-3.5699 29.91993,-10.81445 8.16333,-7.24455 13.60546,-18.14214 13.60546,-32.6875 v -42.82227 l -0.16796,0.0449 c -6.86638,1.84863 -13.09924,5.09375 -18.39063,9.54687 -14.93228,-10.48553 -34.924159,-10.51312 -49.960938,0.0254 -5.264506,-4.42655 -11.522751,-7.77722 -18.363281,-9.59961 z m 0.265625,0.35547 c 6.766199,1.83055 12.963141,5.15315 18.169921,9.54883 l 0.07813,0.0664 0.08398,-0.0586 c 14.983008,-10.55141 34.949148,-10.52572 49.826168,-0.0273 l 0.20899,0.14843 v -0.18945 c 5.22338,-4.40247 11.37596,-7.6114 18.15039,-9.46094 V 156.5 c 0,14.47944 -5.40709,25.29237 -13.51563,32.48828 -8.10853,7.19592 -18.92558,10.77278 -29.74414,10.74805 -10.818558,-0.0247 -21.635378,-3.65103 -29.744138,-10.84961 -8.108759,-7.19858 -13.513671,-17.96644 -13.513671,-32.30664 z m 76.146479,41.72852 c -10.51544,-0.0794 -17.12814,-0.34649 -21.58593,1.39453 -2.2289,0.8705 -3.91311,2.24991 -5.24805,4.39257 -1.33494,2.14267 -2.32523,5.04485 -3.19336,8.97461 l -0.0352,0.16211 0.16602,-0.002 c 0,0 9.52381,-0.0788 16.22266,-0.39648 h 0.002 c 2.7243,-0.13355 5.60505,-1.05667 6.80469,-1.73829 3.50619,-2.01306 5.20951,-4.63684 6.05468,-7.02539 0.84518,-2.38854 0.83921,-4.54963 0.94336,-5.61718 l 0.0137,-0.14453 z m -65.749995,0.0254 -0.144531,0.002 0.01367,0.14258 c 0.104151,1.06755 0.09818,3.22864 0.943359,5.61718 0.845177,2.38855 2.548495,5.01429 6.054687,7.02735 1.198899,0.68119 4.056042,1.6028 6.806641,1.73633 6.698008,0.29121 16.222659,0.39648 16.222659,0.39648 l 0.16797,0.002 -0.0371,-0.16211 c -0.87476,-3.93639 -1.87062,-6.84235 -3.210941,-8.98828 -1.340315,-2.14592 -3.02921,-3.52793 -5.259765,-4.39843 -4.461111,-1.74101 -11.067646,-1.46759 -21.556641,-1.375 z m 65.749705,0.10599 c -0.0981,1.12799 -0.25782,3.2747 -1.06025,5.54244 -0.82831,2.34089 -2.48515,4.90262 -5.9375,6.88477 v -0.002 c -1.12868,0.6413 -4.0143,1.57208 -6.6875,1.70312 -6.61655,0.31381 -15.83426,0.39086 -16.03711,0.39258 0.85474,-3.81845 1.82528,-6.65729 3.11328,-8.72461 1.30924,-2.10142 2.93806,-3.43452 5.12109,-4.28711 4.34222,-1.69587 11.06902,-1.58998 21.48799,-1.50924 z m -65.605174,0.15963 c 10.392672,-0.0938 16.970961,-0.34039 21.316406,1.35547 2.18468,0.8526 3.816245,2.18819 5.13086,4.29297 1.293618,2.07116 2.271418,4.91384 3.132808,8.74023 -0.20282,-0.002 -9.42167,-0.10486 -16.039058,-0.39258 -2.699819,-0.13105 -5.558067,-1.0614 -6.6875,-1.70312 -3.452352,-1.98215 -5.109188,-4.54388 -5.9375,-6.88477 -0.802086,-2.26676 -0.817994,-4.2799 -0.916016,-5.4082 z m 19.082032,20.08008 0.234374,0.22851 c 3.744829,3.61204 8.313698,6.40002 13.359378,8.09961 l 0.041,0.0137 0.043,-0.0137 c 5.07232,-1.69962 9.61394,-4.4881 13.38477,-8.09961 l 0.23828,-0.22851 h -0.33008 z m 0.714843,0.26562 h 25.867189 c -3.67753,3.44942 -8.05019,6.14538 -12.94531,7.79297 -4.87037,-1.64753 -9.267736,-4.34379 -12.921879,-7.79297 z m 2.878907,10.09766 -0.04688,0.0234 c 0,0 -0.209469,0.10961 -0.52539,0.38476 -0.315921,0.27516 -0.747555,0.72054 -1.216797,1.4043 -0.764462,1.11939 -1,2.59375 -1,2.59375 l -0.01367,0.0879 0.07617,0.0469 c 7.743019,4.68306 17.846829,4.68306 25.589849,0 l 0.14453,-0.0879 -0.0937,-0.0938 c -6.9e-4,-0.004 -0.001,-0.005 -0.002,-0.01 -0.005,-0.0319 -0.0127,-0.0789 -0.0234,-0.14063 -0.0216,-0.12341 -0.056,-0.301 -0.11523,-0.51757 -0.11844,-0.43315 -0.33394,-1.02706 -0.73829,-1.6875 -0.86238,-1.42831 -1.87695,-1.97852 -1.87695,-1.97852 l -0.0469,-0.0254 -0.0527,0.0156 c -6.53509,1.92363 -13.76214,1.8164 -20.007815,-0.002 z M 115.83984,186.75 c 0.0512,0.0282 0.9348,0.52213 1.74219,1.85938 v 0.002 c 0.38939,0.63602 0.59592,1.20563 0.70899,1.61914 0.0565,0.20675 0.0907,0.37416 0.11132,0.49219 0.007,0.0401 0.011,0.0669 0.0156,0.0957 -7.61511,4.56538 -17.51871,4.56547 -25.13672,0.006 0.01771,-0.10144 0.231623,-1.38185 0.921875,-2.39258 0.456799,-0.66562 0.87264,-1.09289 1.171875,-1.35352 0.279353,-0.2433 0.420015,-0.31482 0.441406,-0.32617 6.260084,1.80898 13.474774,1.91102 20.023434,-0.002 z"
           id="path1665"
           sodipodi:nodetypes="scccccccscccccccssccccccccccscccscccccssccccccccccccccssccccscsssssccccccccccccccsssssccssccccccsccccccscccccssccsccccssccsscccsccccccccccccccccscccccccssscccccccccsscccscc" />
      </g>
      <path
         id="path1669"
         style="fill:url(#linearGradient1744);stroke:none;stroke-width:0.264583;fill-opacity:1"
         d="m 84.727838,115.71444 c 4e-6,11.17755 -12.182737,8.8798 -19.764721,20.23874 C 58.902969,145.03219 48.187538,127.49796 37.0628,121.8414 16.547713,111.41016 53.211272,84.397767 69.085535,92.549851 78.79572,97.536428 84.727836,104.5369 84.727838,115.71444 Z"
         sodipodi:nodetypes="sssss" />
      <path
         id="path1669-3"
         style="fill:url(#linearGradient1744);stroke:none;stroke-width:0.264583;fill-opacity:1"
         d="m 127.64382,116.03433 c 0,11.17755 12.18274,8.8798 19.76472,20.23874 6.06015,9.07901 16.77558,-8.45522 27.90032,-14.11178 20.51509,-10.43124 -16.14847,-37.443638 -32.02274,-29.291554 -9.71018,4.986577 -15.6423,11.987044 -15.6423,23.164594 z"
         sodipodi:nodetypes="sssss" />
    </g>
  </g>
</svg>
