<?xml version="1.0" encoding="UTF-8" standalone="no"?>
<svg
   xmlns:dc="http://purl.org/dc/elements/1.1/"
   xmlns:cc="http://creativecommons.org/ns#"
   xmlns:rdf="http://www.w3.org/1999/02/22-rdf-syntax-ns#"
   xmlns:svg="http://www.w3.org/2000/svg"
   xmlns="http://www.w3.org/2000/svg"
   xmlns:xlink="http://www.w3.org/1999/xlink"
   xmlns:sodipodi="http://sodipodi.sourceforge.net/DTD/sodipodi-0.dtd"
   xmlns:inkscape="http://www.inkscape.org/namespaces/inkscape"
   width="210mm"
   height="297mm"
   viewBox="0 0 210 297"
   version="1.1"
   id="svg8"
   inkscape:version="1.0.1 (0767f8302a, 2020-10-17)"
   sodipodi:docname="share.svg">
  <defs
     id="defs2">
    <linearGradient
       inkscape:collect="always"
       id="linearGradient894">
      <stop
         style="stop-color:#ff00ff;stop-opacity:1"
         offset="0"
         id="stop890" />
      <stop
         style="stop-color:#00ffff;stop-opacity:1"
         offset="1"
         id="stop892" />
    </linearGradient>
    <linearGradient
       inkscape:collect="always"
       xlink:href="#linearGradient894"
       id="linearGradient896"
       x1="46.566668"
       y1="148.16666"
       x2="165.1"
       y2="148.16666"
       gradientUnits="userSpaceOnUse" />
  </defs>
  <sodipodi:namedview
     id="base"
     pagecolor="#ffffff"
     bordercolor="#666666"
     borderopacity="1.0"
     inkscape:pageopacity="0.0"
     inkscape:pageshadow="2"
     inkscape:zoom="0.35"
     inkscape:cx="400"
     inkscape:cy="560"
     inkscape:document-units="mm"
     inkscape:current-layer="layer1"
     inkscape:document-rotation="0"
     showgrid="false"
     inkscape:window-width="1366"
     inkscape:window-height="668"
     inkscape:window-x="0"
     inkscape:window-y="27"
     inkscape:window-maximized="1" />
  <metadata
     id="metadata5">
    <rdf:RDF>
      <cc:Work
         rdf:about="">
        <dc:format>image/svg+xml</dc:format>
        <dc:type
           rdf:resource="http://purl.org/dc/dcmitype/StillImage" />
        <dc:title></dc:title>
      </cc:Work>
    </rdf:RDF>
  </metadata>
  <g
     inkscape:label="Layer 1"
     inkscape:groupmode="layer"
     id="layer1">
    <path
       fill="currentColor"
       d="m 165.1,101.6 v 93.13333 c 0,7.0141 -5.68589,12.7 -12.7,12.7 H 59.266668 c -7.014104,0 -12.7,-5.6859 -12.7,-12.7 V 101.6 c 0,-7.014105 5.685896,-12.7 12.7,-12.7 H 152.4 c 7.01411,0 12.7,5.685895 12.7,12.7 z M 127,158.75 c -3.85286,0 -7.3615,1.47135 -9.99675,3.8817 L 99.022695,151.84332 a 14.90636,14.90636 0 0 0 0,-7.35357 l 17.980555,-10.78838 c 2.63525,2.41062 6.14389,3.88196 9.99675,3.88196 8.18304,0 14.81667,-6.63363 14.81667,-14.81666 0,-8.18304 -6.63363,-14.81667 -14.81667,-14.81667 -8.18303,0 -14.81666,6.63363 -14.81666,14.81667 0,1.2692 0.16007,2.5011 0.46037,3.67691 L 94.663155,137.23197 C 92.02817,134.82135 88.51953,133.35 84.666668,133.35 c -8.183033,0 -14.816667,6.63363 -14.816667,14.81667 0,8.18303 6.633634,14.81666 14.816667,14.81666 3.852862,0 7.361502,-1.47134 9.996752,-3.8817 l 17.98055,10.78839 a 14.83995,14.83995 0 0 0 -0.46037,3.67691 c 0,8.18303 6.63363,14.81666 14.81667,14.81666 8.18303,0 14.81666,-6.63363 14.81666,-14.81666 C 141.81667,165.38363 135.18304,158.75 127,158.75 Z"
       id="path879"
       style="stroke-width:0.264583;fill-opacity:1;fill:url(#linearGradient896)" />
  </g>
</svg>
