<?xml version="1.0" encoding="UTF-8" standalone="no"?>
<svg
   xmlns:dc="http://purl.org/dc/elements/1.1/"
   xmlns:cc="http://creativecommons.org/ns#"
   xmlns:rdf="http://www.w3.org/1999/02/22-rdf-syntax-ns#"
   xmlns:svg="http://www.w3.org/2000/svg"
   xmlns="http://www.w3.org/2000/svg"
   xmlns:xlink="http://www.w3.org/1999/xlink"
   xmlns:sodipodi="http://sodipodi.sourceforge.net/DTD/sodipodi-0.dtd"
   xmlns:inkscape="http://www.inkscape.org/namespaces/inkscape"
   aria-hidden="true"
   focusable="false"
   data-prefix="fab"
   data-icon="twitter"
   class="svg-inline--fa fa-twitter fa-w-16"
   role="img"
   viewBox="0 0 55.000004 44.670166"
   version="1.1"
   id="svg1010"
   sodipodi:docname="twitter.svg"
   width="55.000004"
   height="44.670166"
   inkscape:version="1.0.1 (0767f8302a, 2020-10-17)">
  <metadata
     id="metadata1016">
    <rdf:RDF>
      <cc:Work
         rdf:about="">
        <dc:format>image/svg+xml</dc:format>
        <dc:type
           rdf:resource="http://purl.org/dc/dcmitype/StillImage" />
        <dc:title></dc:title>
      </cc:Work>
    </rdf:RDF>
  </metadata>
  <defs
     id="defs1014">
    <linearGradient
       inkscape:collect="always"
       id="linearGradient1022">
      <stop
         style="stop-color:#ff00ff;stop-opacity:1;"
         offset="0"
         id="stop1018" />
      <stop
         style="stop-color:#00ffff;stop-opacity:1"
         offset="1"
         id="stop1020" />
    </linearGradient>
    <linearGradient
       inkscape:collect="always"
       xlink:href="#linearGradient1022"
       id="linearGradient1024"
       x1="0"
       y1="256.00049"
       x2="511.99799"
       y2="256.00049"
       gradientUnits="userSpaceOnUse"
       gradientTransform="matrix(0.10742229,0,0,0.10742229,2e-6,-5.1650787)" />
  </defs>
  <sodipodi:namedview
     pagecolor="#ffffff"
     bordercolor="#666666"
     borderopacity="1"
     objecttolerance="10"
     gridtolerance="10"
     guidetolerance="10"
     inkscape:pageopacity="0"
     inkscape:pageshadow="2"
     inkscape:window-width="1366"
     inkscape:window-height="668"
     id="namedview1012"
     showgrid="false"
     inkscape:zoom="0.61914062"
     inkscape:cx="256"
     inkscape:cy="207.918"
     inkscape:window-x="0"
     inkscape:window-y="27"
     inkscape:window-maximized="1"
     inkscape:current-layer="svg1010" />
  <path
     fill="currentColor"
     d="m 49.346583,11.132602 c 0.03491,0.488557 0.03491,0.977221 0.03491,1.465778 0,14.901621 -11.341968,32.071787 -32.071786,32.071787 -6.386471,0 -12.3191893,-1.849705 -17.309707,-5.060236 0.90739616,0.104632 1.7797727,0.139542 2.722081,0.139542 5.2696009,0 10.120577,-1.779773 13.994333,-4.815957 -4.955602,-0.104731 -9.1085479,-3.350286 -10.539413,-7.817335 0.6980301,0.104632 1.3959528,0.174454 2.1288951,0.174454 1.0120256,0 2.0241589,-0.139649 2.9663599,-0.38382 C 6.1072818,25.85977 2.2334188,21.323004 2.2334188,15.84393 v -0.139542 c 1.5005821,0.837572 3.2456574,1.36104 5.0951471,1.430758 C 4.292382,15.110988 2.3032433,11.656071 2.3032433,7.7474036 c 0,-2.0938754 0.5582736,-4.013297 1.5354943,-5.6884403 C 9.3876365,8.8990781 17.728441,13.366019 27.081164,13.854683 26.906709,13.017112 26.801973,12.144735 26.801973,11.272252 26.801973,5.0602348 31.827403,0 38.074224,0 c 3.24555,0 6.176998,1.3610405 8.236068,3.5596527 2.54752,-0.4885566 4.990411,-1.430865 7.154218,-2.72208103 -0.837679,2.61745173 -2.617452,4.81606393 -4.955606,6.21190933 2.268436,-0.2441709 4.467049,-0.872484 6.4911,-1.7448605 -1.53528,2.233417 -3.454809,4.2225558 -5.653421,5.8279815 z"
     id="path1008"
     style="fill:url(#linearGradient1024);fill-opacity:1;stroke-width:0.107422" />
</svg>
